#N canvas 53 74 1076 531 10;
#X obj 11 76 netreceive -u -b;
#X obj 471 27 bng 15 250 50 0 empty empty empty 17 7 0 10 -262144 -1
-1;
#X obj 471 6 loadbang;
#X msg 11 53 listen 5550;
#X obj 266 77 netreceive -u -b;
#X obj 266 103 oscparse;
#X obj 536 85 netreceive -u -b;
#X obj 536 108 oscparse;
#X obj 815 81 netreceive -u -b;
#X obj 815 104 oscparse;
#X obj 12 104 oscparse;
#X obj 12 128 list split 1;
#X obj 11 155 route 0 1 2 3;
#X obj 268 132 list split 1;
#X obj 537 130 list split 1;
#X obj 815 128 list split 1;
#X floatatom 10 239 5 0 0 0 - - -, f 5;
#X msg 266 54 listen 5551;
#X msg 536 62 listen 5552;
#X msg 815 58 listen 5553;
#X floatatom 27 256 5 0 0 0 - - -, f 5;
#X floatatom 65 306 5 0 0 0 - - -, f 5;
#X floatatom 79 325 5 0 0 0 - - -, f 5;
#X floatatom 53 288 5 0 0 0 - - -, f 5;
#X floatatom 40 272 5 0 0 0 - - -, f 5;
#X obj 10 211 unpack 0 0 0 0 0 0;
#X floatatom 20 400 5 0 0 0 - - -, f 5;
#X floatatom 37 417 5 0 0 0 - - -, f 5;
#X floatatom 75 467 5 0 0 0 - - -, f 5;
#X floatatom 89 486 5 0 0 0 - - -, f 5;
#X floatatom 63 449 5 0 0 0 - - -, f 5;
#X floatatom 50 433 5 0 0 0 - - -, f 5;
#X obj 20 372 unpack 0 0 0 0 0 0;
#X floatatom 140 239 5 0 0 0 - - -, f 5;
#X floatatom 157 256 5 0 0 0 - - -, f 5;
#X floatatom 195 306 5 0 0 0 - - -, f 5;
#X floatatom 209 325 5 0 0 0 - - -, f 5;
#X floatatom 183 288 5 0 0 0 - - -, f 5;
#X floatatom 170 272 5 0 0 0 - - -, f 5;
#X obj 140 211 unpack 0 0 0 0 0 0;
#X floatatom 141 399 5 0 0 0 - - -, f 5;
#X floatatom 158 416 5 0 0 0 - - -, f 5;
#X floatatom 196 466 5 0 0 0 - - -, f 5;
#X floatatom 210 485 5 0 0 0 - - -, f 5;
#X floatatom 184 448 5 0 0 0 - - -, f 5;
#X floatatom 171 432 5 0 0 0 - - -, f 5;
#X obj 141 371 unpack 0 0 0 0 0 0;
#X text 15 339 device 1 \, finger 1;
#X text 140 341 device 1 \, finger 2;
#X text 16 502 device 1 \, finger 3;
#X text 139 500 device 1 \, finger 4;
#X obj 268 156 route 0 1 2 3;
#X floatatom 267 240 5 0 0 0 - - -, f 5;
#X floatatom 284 257 5 0 0 0 - - -, f 5;
#X floatatom 322 307 5 0 0 0 - - -, f 5;
#X floatatom 336 326 5 0 0 0 - - -, f 5;
#X floatatom 310 289 5 0 0 0 - - -, f 5;
#X floatatom 297 273 5 0 0 0 - - -, f 5;
#X obj 267 212 unpack 0 0 0 0 0 0;
#X floatatom 277 401 5 0 0 0 - - -, f 5;
#X floatatom 294 418 5 0 0 0 - - -, f 5;
#X floatatom 332 468 5 0 0 0 - - -, f 5;
#X floatatom 346 487 5 0 0 0 - - -, f 5;
#X floatatom 320 450 5 0 0 0 - - -, f 5;
#X floatatom 307 434 5 0 0 0 - - -, f 5;
#X obj 277 373 unpack 0 0 0 0 0 0;
#X floatatom 397 240 5 0 0 0 - - -, f 5;
#X floatatom 414 257 5 0 0 0 - - -, f 5;
#X floatatom 452 307 5 0 0 0 - - -, f 5;
#X floatatom 466 326 5 0 0 0 - - -, f 5;
#X floatatom 440 289 5 0 0 0 - - -, f 5;
#X floatatom 427 273 5 0 0 0 - - -, f 5;
#X obj 397 212 unpack 0 0 0 0 0 0;
#X floatatom 398 400 5 0 0 0 - - -, f 5;
#X floatatom 415 417 5 0 0 0 - - -, f 5;
#X floatatom 453 467 5 0 0 0 - - -, f 5;
#X floatatom 467 486 5 0 0 0 - - -, f 5;
#X floatatom 441 449 5 0 0 0 - - -, f 5;
#X floatatom 428 433 5 0 0 0 - - -, f 5;
#X obj 398 372 unpack 0 0 0 0 0 0;
#X text 272 340 device 2 \, finger 1;
#X text 397 342 device 2 \, finger 2;
#X text 273 503 device 2 \, finger 3;
#X text 396 501 device 2 \, finger 4;
#X obj 535 159 route 0 1 2 3;
#X floatatom 530 237 5 0 0 0 - - -, f 5;
#X floatatom 547 254 5 0 0 0 - - -, f 5;
#X floatatom 585 304 5 0 0 0 - - -, f 5;
#X floatatom 599 323 5 0 0 0 - - -, f 5;
#X floatatom 573 286 5 0 0 0 - - -, f 5;
#X floatatom 560 270 5 0 0 0 - - -, f 5;
#X obj 530 209 unpack 0 0 0 0 0 0;
#X floatatom 540 398 5 0 0 0 - - -, f 5;
#X floatatom 557 415 5 0 0 0 - - -, f 5;
#X floatatom 595 465 5 0 0 0 - - -, f 5;
#X floatatom 609 484 5 0 0 0 - - -, f 5;
#X floatatom 583 447 5 0 0 0 - - -, f 5;
#X floatatom 570 431 5 0 0 0 - - -, f 5;
#X obj 540 370 unpack 0 0 0 0 0 0;
#X floatatom 660 237 5 0 0 0 - - -, f 5;
#X floatatom 677 254 5 0 0 0 - - -, f 5;
#X floatatom 715 304 5 0 0 0 - - -, f 5;
#X floatatom 729 323 5 0 0 0 - - -, f 5;
#X floatatom 703 286 5 0 0 0 - - -, f 5;
#X floatatom 690 270 5 0 0 0 - - -, f 5;
#X obj 660 209 unpack 0 0 0 0 0 0;
#X floatatom 661 397 5 0 0 0 - - -, f 5;
#X floatatom 678 414 5 0 0 0 - - -, f 5;
#X floatatom 716 464 5 0 0 0 - - -, f 5;
#X floatatom 730 483 5 0 0 0 - - -, f 5;
#X floatatom 704 446 5 0 0 0 - - -, f 5;
#X floatatom 691 430 5 0 0 0 - - -, f 5;
#X obj 661 369 unpack 0 0 0 0 0 0;
#X text 535 337 device 3 \, finger 1;
#X text 660 339 device 3 \, finger 2;
#X text 536 500 device 3 \, finger 3;
#X text 659 498 device 3 \, finger 4;
#X obj 814 162 route 0 1 2 3;
#X floatatom 811 238 5 0 0 0 - - -, f 5;
#X floatatom 828 255 5 0 0 0 - - -, f 5;
#X floatatom 866 305 5 0 0 0 - - -, f 5;
#X floatatom 880 324 5 0 0 0 - - -, f 5;
#X floatatom 854 287 5 0 0 0 - - -, f 5;
#X floatatom 841 271 5 0 0 0 - - -, f 5;
#X obj 811 210 unpack 0 0 0 0 0 0;
#X floatatom 821 399 5 0 0 0 - - -, f 5;
#X floatatom 838 416 5 0 0 0 - - -, f 5;
#X floatatom 876 466 5 0 0 0 - - -, f 5;
#X floatatom 890 485 5 0 0 0 - - -, f 5;
#X floatatom 864 448 5 0 0 0 - - -, f 5;
#X floatatom 851 432 5 0 0 0 - - -, f 5;
#X obj 821 371 unpack 0 0 0 0 0 0;
#X floatatom 941 238 5 0 0 0 - - -, f 5;
#X floatatom 958 255 5 0 0 0 - - -, f 5;
#X floatatom 996 305 5 0 0 0 - - -, f 5;
#X floatatom 1010 324 5 0 0 0 - - -, f 5;
#X floatatom 984 287 5 0 0 0 - - -, f 5;
#X floatatom 971 271 5 0 0 0 - - -, f 5;
#X obj 941 210 unpack 0 0 0 0 0 0;
#X floatatom 942 398 5 0 0 0 - - -, f 5;
#X floatatom 959 415 5 0 0 0 - - -, f 5;
#X floatatom 997 465 5 0 0 0 - - -, f 5;
#X floatatom 1011 484 5 0 0 0 - - -, f 5;
#X floatatom 985 447 5 0 0 0 - - -, f 5;
#X floatatom 972 431 5 0 0 0 - - -, f 5;
#X obj 942 370 unpack 0 0 0 0 0 0;
#X text 816 338 device 4 \, finger 1;
#X text 941 340 device 4 \, finger 2;
#X text 817 501 device 4 \, finger 3;
#X text 940 499 device 4 \, finger 4;
#X connect 0 0 10 0;
#X connect 1 0 3 0;
#X connect 1 0 17 0;
#X connect 1 0 18 0;
#X connect 1 0 19 0;
#X connect 2 0 1 0;
#X connect 3 0 0 0;
#X connect 4 0 5 0;
#X connect 5 0 13 0;
#X connect 6 0 7 0;
#X connect 7 0 14 0;
#X connect 8 0 9 0;
#X connect 9 0 15 0;
#X connect 10 0 11 0;
#X connect 11 1 12 0;
#X connect 12 0 25 0;
#X connect 12 1 39 0;
#X connect 12 2 32 0;
#X connect 12 3 46 0;
#X connect 13 1 51 0;
#X connect 14 1 84 0;
#X connect 15 1 117 0;
#X connect 17 0 4 0;
#X connect 18 0 6 0;
#X connect 19 0 8 0;
#X connect 25 0 16 0;
#X connect 25 1 20 0;
#X connect 25 2 24 0;
#X connect 25 3 23 0;
#X connect 25 4 21 0;
#X connect 25 5 22 0;
#X connect 32 0 26 0;
#X connect 32 1 27 0;
#X connect 32 2 31 0;
#X connect 32 3 30 0;
#X connect 32 4 28 0;
#X connect 32 5 29 0;
#X connect 39 0 33 0;
#X connect 39 1 34 0;
#X connect 39 2 38 0;
#X connect 39 3 37 0;
#X connect 39 4 35 0;
#X connect 39 5 36 0;
#X connect 46 0 40 0;
#X connect 46 1 41 0;
#X connect 46 2 45 0;
#X connect 46 3 44 0;
#X connect 46 4 42 0;
#X connect 46 5 43 0;
#X connect 51 0 58 0;
#X connect 51 1 72 0;
#X connect 51 2 65 0;
#X connect 51 3 79 0;
#X connect 58 0 52 0;
#X connect 58 1 53 0;
#X connect 58 2 57 0;
#X connect 58 3 56 0;
#X connect 58 4 54 0;
#X connect 58 5 55 0;
#X connect 65 0 59 0;
#X connect 65 1 60 0;
#X connect 65 2 64 0;
#X connect 65 3 63 0;
#X connect 65 4 61 0;
#X connect 65 5 62 0;
#X connect 72 0 66 0;
#X connect 72 1 67 0;
#X connect 72 2 71 0;
#X connect 72 3 70 0;
#X connect 72 4 68 0;
#X connect 72 5 69 0;
#X connect 79 0 73 0;
#X connect 79 1 74 0;
#X connect 79 2 78 0;
#X connect 79 3 77 0;
#X connect 79 4 75 0;
#X connect 79 5 76 0;
#X connect 84 0 91 0;
#X connect 84 1 105 0;
#X connect 84 2 98 0;
#X connect 84 3 112 0;
#X connect 91 0 85 0;
#X connect 91 1 86 0;
#X connect 91 2 90 0;
#X connect 91 3 89 0;
#X connect 91 4 87 0;
#X connect 91 5 88 0;
#X connect 98 0 92 0;
#X connect 98 1 93 0;
#X connect 98 2 97 0;
#X connect 98 3 96 0;
#X connect 98 4 94 0;
#X connect 98 5 95 0;
#X connect 105 0 99 0;
#X connect 105 1 100 0;
#X connect 105 2 104 0;
#X connect 105 3 103 0;
#X connect 105 4 101 0;
#X connect 105 5 102 0;
#X connect 112 0 106 0;
#X connect 112 1 107 0;
#X connect 112 2 111 0;
#X connect 112 3 110 0;
#X connect 112 4 108 0;
#X connect 112 5 109 0;
#X connect 117 0 124 0;
#X connect 117 1 138 0;
#X connect 117 2 131 0;
#X connect 117 3 145 0;
#X connect 124 0 118 0;
#X connect 124 1 119 0;
#X connect 124 2 123 0;
#X connect 124 3 122 0;
#X connect 124 4 120 0;
#X connect 124 5 121 0;
#X connect 131 0 125 0;
#X connect 131 1 126 0;
#X connect 131 2 130 0;
#X connect 131 3 129 0;
#X connect 131 4 127 0;
#X connect 131 5 128 0;
#X connect 138 0 132 0;
#X connect 138 1 133 0;
#X connect 138 2 137 0;
#X connect 138 3 136 0;
#X connect 138 4 134 0;
#X connect 138 5 135 0;
#X connect 145 0 139 0;
#X connect 145 1 140 0;
#X connect 145 2 144 0;
#X connect 145 3 143 0;
#X connect 145 4 141 0;
#X connect 145 5 142 0;
